<svg xmlns="http://www.w3.org/2000/svg" xmlns:xlink="http://www.w3.org/1999/xlink" width="950" zoomAndPan="magnify" viewBox="0 0 712.5 435.749987" height="581" preserveAspectRatio="xMidYMid meet" version="1.0"><defs><g/><clipPath id="634e8e73de"><path d="M 562.34375 109.144531 L 620.261719 109.144531 L 620.261719 167.0625 L 562.34375 167.0625 Z M 562.34375 109.144531 " clip-rule="nonzero"/></clipPath><clipPath id="e8d88406fc"><path d="M 591.304688 109.144531 L 596.925781 117.121094 L 605.785156 113.023438 L 606.660156 122.746094 L 616.382812 123.621094 L 612.285156 132.480469 L 620.261719 138.101562 L 612.285156 143.722656 L 616.382812 152.582031 L 606.660156 153.460938 L 605.785156 163.183594 L 596.925781 159.082031 L 591.304688 167.0625 L 585.683594 159.082031 L 576.824219 163.183594 L 575.945312 153.460938 L 566.222656 152.582031 L 570.324219 143.722656 L 562.34375 138.101562 L 570.324219 132.480469 L 566.222656 123.621094 L 575.945312 122.746094 L 576.824219 113.023438 L 585.683594 117.121094 Z M 591.304688 109.144531 " clip-rule="nonzero"/></clipPath></defs><g fill="#187045" fill-opacity="1"><g transform="translate(91.444306, 294.666197)"><g><path d="M 11.3125 0 L 11.3125 -165.453125 L 44.546875 -165.453125 L 44.546875 -75.65625 C 50.046875 -78.476562 54.992188 -81.773438 59.390625 -85.546875 C 63.796875 -89.328125 67.6875 -93.375 71.0625 -97.6875 C 74.4375 -102.007812 77.300781 -106.367188 79.65625 -110.765625 C 82.019531 -115.171875 83.828125 -119.492188 85.078125 -123.734375 L 123.96875 -123.734375 C 122.082031 -117.765625 119.410156 -111.832031 115.953125 -105.9375 C 112.492188 -100.050781 108.25 -94.515625 103.21875 -89.328125 C 98.195312 -84.140625 92.425781 -79.582031 85.90625 -75.65625 C 79.382812 -71.726562 72.195312 -68.664062 64.34375 -66.46875 L 64.34375 -64.109375 C 74.394531 -65.523438 82.679688 -65.445312 89.203125 -63.875 C 95.722656 -62.300781 100.945312 -59.628906 104.875 -55.859375 C 108.800781 -52.085938 111.90625 -47.566406 114.1875 -42.296875 C 116.46875 -37.035156 118.316406 -31.421875 119.734375 -25.453125 L 125.390625 0 L 88.625 0 L 85.546875 -17.4375 C 84.296875 -23.726562 82.726562 -29.347656 80.84375 -34.296875 C 78.957031 -39.242188 76.050781 -43.171875 72.125 -46.078125 C 68.195312 -48.984375 62.460938 -50.4375 54.921875 -50.4375 L 44.546875 -50.4375 L 44.546875 0 Z M 11.3125 0 "/></g></g></g><g fill="#e46e51" fill-opacity="1"><g transform="translate(220.84568, 294.666197)"><g><path d="M 51.140625 3.296875 C 45.484375 3.296875 40.453125 2.507812 36.046875 0.9375 C 31.648438 -0.632812 27.800781 -3.03125 24.5 -6.25 C 21.207031 -9.46875 18.460938 -13.472656 16.265625 -18.265625 C 14.066406 -23.054688 12.414062 -28.671875 11.3125 -35.109375 C 10.207031 -41.554688 9.65625 -48.863281 9.65625 -57.03125 L 9.65625 -123.734375 L 43.84375 -123.734375 L 43.84375 -61.28125 C 43.84375 -57.664062 43.957031 -53.816406 44.1875 -49.734375 C 44.425781 -45.648438 45.132812 -41.835938 46.3125 -38.296875 C 47.488281 -34.765625 49.375 -31.859375 51.96875 -29.578125 C 54.5625 -27.296875 58.210938 -26.15625 62.921875 -26.15625 C 67.015625 -26.15625 70.707031 -27.175781 74 -29.21875 C 77.300781 -31.269531 80.128906 -34.375 82.484375 -38.53125 C 84.847656 -42.695312 86.617188 -47.800781 87.796875 -53.84375 C 88.972656 -59.894531 89.640625 -66.851562 89.796875 -74.71875 L 89.796875 -123.734375 L 123.734375 -123.734375 L 123.734375 0 L 94.984375 0 L 95.453125 -45.953125 L 92.859375 -45.953125 C 91.441406 -34.328125 89.003906 -24.898438 85.546875 -17.671875 C 82.097656 -10.441406 77.546875 -5.140625 71.890625 -1.765625 C 66.234375 1.609375 59.316406 3.296875 51.140625 3.296875 Z M 51.140625 3.296875 "/></g></g></g><g fill="#ae3a6d" fill-opacity="1"><g transform="translate(355.669034, 294.666197)"><g><path d="M 11.3125 0 L 11.3125 -69.765625 L 11.078125 -123.734375 L 39.59375 -123.734375 L 39.125 -76.359375 L 41.953125 -76.359375 C 43.367188 -88.460938 45.765625 -98.207031 49.140625 -105.59375 C 52.515625 -112.976562 56.875 -118.394531 62.21875 -121.84375 C 67.5625 -125.300781 73.925781 -127.03125 81.3125 -127.03125 C 86.65625 -127.03125 91.367188 -126.085938 95.453125 -124.203125 C 99.535156 -122.316406 103.03125 -119.367188 105.9375 -115.359375 C 108.84375 -111.359375 111.039062 -106.132812 112.53125 -99.6875 C 114.03125 -93.25 114.78125 -85.472656 114.78125 -76.359375 L 117.375 -76.359375 C 118.945312 -88.460938 121.539062 -98.207031 125.15625 -105.59375 C 128.769531 -112.976562 133.40625 -118.394531 139.0625 -121.84375 C 144.71875 -125.300781 151.238281 -127.03125 158.625 -127.03125 C 164.59375 -127.03125 169.816406 -125.96875 174.296875 -123.84375 C 178.773438 -121.726562 182.503906 -118.785156 185.484375 -115.015625 C 188.472656 -111.242188 190.867188 -106.84375 192.671875 -101.8125 C 194.484375 -96.789062 195.78125 -91.332031 196.5625 -85.4375 C 197.34375 -79.539062 197.734375 -73.453125 197.734375 -67.171875 L 197.734375 0 L 163.796875 0 L 163.796875 -63.640625 C 163.796875 -66.460938 163.675781 -69.757812 163.4375 -73.53125 C 163.207031 -77.300781 162.539062 -80.992188 161.4375 -84.609375 C 160.34375 -88.222656 158.613281 -91.25 156.25 -93.6875 C 153.894531 -96.125 150.675781 -97.34375 146.59375 -97.34375 C 141.570312 -97.34375 137.175781 -95.375 133.40625 -91.4375 C 129.632812 -87.507812 126.644531 -81.851562 124.4375 -74.46875 C 122.238281 -67.09375 121.140625 -58.0625 121.140625 -47.375 L 121.140625 0 L 87.90625 0 L 87.90625 -63.640625 C 87.90625 -66.304688 87.75 -69.523438 87.4375 -73.296875 C 87.125 -77.066406 86.457031 -80.796875 85.4375 -84.484375 C 84.414062 -88.179688 82.722656 -91.25 80.359375 -93.6875 C 78.003906 -96.125 74.628906 -97.34375 70.234375 -97.34375 C 65.523438 -97.34375 61.28125 -95.492188 57.5 -91.796875 C 53.726562 -88.109375 50.742188 -82.570312 48.546875 -75.1875 C 46.347656 -67.800781 45.25 -58.53125 45.25 -47.375 L 45.25 0 Z M 11.3125 0 "/></g></g></g><g fill="#044b85" fill-opacity="1"><g transform="translate(563.32018, 294.666197)"><g><path d="M 11.3125 0 L 11.3125 -123.734375 L 45.25 -123.734375 L 45.25 0 Z M 28.046875 -136.9375 C 21.441406 -136.9375 16.410156 -138.347656 12.953125 -141.171875 C 9.503906 -144.003906 7.78125 -148.015625 7.78125 -153.203125 C 7.78125 -158.691406 9.503906 -162.8125 12.953125 -165.5625 C 16.410156 -168.3125 21.441406 -169.6875 28.046875 -169.6875 C 34.804688 -169.6875 39.910156 -168.269531 43.359375 -165.4375 C 46.816406 -162.613281 48.546875 -158.535156 48.546875 -153.203125 C 48.546875 -148.015625 46.816406 -144.003906 43.359375 -141.171875 C 39.910156 -138.347656 34.804688 -136.9375 28.046875 -136.9375 Z M 28.046875 -136.9375 "/></g></g></g><g clip-path="url(#634e8e73de)"><g clip-path="url(#e8d88406fc)"><path fill="#044b85" d="M 562.34375 109.144531 L 620.261719 109.144531 L 620.261719 167.0625 L 562.34375 167.0625 Z M 562.34375 109.144531 " fill-opacity="1" fill-rule="nonzero"/></g></g></svg>