<svg xmlns="http://www.w3.org/2000/svg" xmlns:xlink="http://www.w3.org/1999/xlink" width="200" zoomAndPan="magnify" viewBox="0 0 150 74.999997" height="100" preserveAspectRatio="xMidYMid meet" version="1.0"><defs><clipPath id="b18b682b67"><path d="M 32 2.203125 L 104 2.203125 L 104 49 L 32 49 Z M 32 2.203125 " clip-rule="nonzero"/></clipPath><clipPath id="03a0e687a8"><path d="M 25 6 L 104 6 L 104 72.703125 L 25 72.703125 Z M 25 6 " clip-rule="nonzero"/></clipPath><clipPath id="1f6cb3ac0a"><path d="M 29 21 L 123 21 L 123 72.703125 L 29 72.703125 Z M 29 21 " clip-rule="nonzero"/></clipPath><clipPath id="3090b94c42"><path d="M 22.816406 2.203125 L 127.066406 2.203125 L 127.066406 72.703125 L 22.816406 72.703125 Z M 22.816406 2.203125 " clip-rule="nonzero"/></clipPath></defs><g clip-path="url(#b18b682b67)"><path fill="#000000" d="M 35.074219 23.222656 C 36.453125 21.53125 35.964844 19.484375 36.675781 17.125 C 37.390625 14.765625 37.167969 9.867188 37.210938 8.976562 C 37.253906 8.085938 38.011719 6.171875 39.125 4.65625 C 40.238281 3.140625 43.355469 2.699219 47.183594 2.699219 C 51.015625 2.699219 53.195312 7.105469 53.597656 8.21875 C 53.996094 9.332031 54.128906 10.535156 53.773438 10.535156 C 53.417969 10.535156 51.683594 10.3125 50.878906 10.132812 C 50.078125 9.957031 50.390625 9.019531 50.210938 7.863281 C 50.035156 6.703125 49.097656 6.660156 49.097656 6.660156 C 49.1875 7.460938 48.296875 9.378906 48.296875 9.378906 C 48.296875 9.378906 44.421875 9.867188 43.265625 10.179688 C 42.109375 10.492188 41.84375 11.023438 41.84375 11.558594 C 41.84375 12.09375 41.84375 12.183594 40.863281 11.828125 C 39.886719 11.472656 39.085938 11.292969 38.726562 12.449219 C 38.371094 13.609375 40.0625 14.320312 41.84375 15.746094 C 43.625 17.167969 42.554688 18.152344 42.019531 21.355469 C 41.484375 24.558594 38.546875 25.363281 36.945312 25.71875 C 35.339844 26.074219 32.3125 27.140625 32.3125 27.140625 C 32.3125 27.140625 33.695312 24.917969 35.074219 23.222656 Z M 88.28125 44.863281 C 88.214844 44.0625 88.480469 43.59375 88.480469 43.59375 C 92.890625 46.398438 97.898438 45.867188 97.898438 45.867188 C 97.898438 45.867188 99.703125 45.199219 100.636719 45.464844 C 101.574219 45.734375 101.640625 46.335938 101.574219 47.335938 C 101.503906 48.339844 101.839844 48.273438 101.839844 48.273438 C 104.3125 47.335938 104.179688 42.863281 103.109375 40.191406 C 102.039062 37.515625 99.570312 36.515625 97.230469 36.183594 C 94.894531 35.847656 91.824219 37.855469 89.882812 38.453125 C 87.945312 39.054688 86.746094 38.386719 85.007812 38.65625 C 83.273438 38.921875 83.40625 39.925781 82.9375 41.796875 C 82.472656 43.664062 83.207031 44.667969 84.410156 46.269531 C 85.609375 47.875 88.617188 48.609375 88.617188 48.609375 C 88.617188 48.609375 88.347656 45.664062 88.28125 44.863281 Z M 88.28125 44.863281 " fill-opacity="1" fill-rule="evenodd"/></g><g clip-path="url(#03a0e687a8)"><path fill="#ffffff" d="M 53.820312 47.667969 C 53.683594 46.332031 54.152344 44.460938 54.152344 44.460938 C 54.621094 46 57.761719 49.671875 59.296875 50.804688 C 60.832031 51.941406 61.769531 53.410156 64.972656 52.007812 C 68.179688 50.605469 66.84375 46.398438 66.710938 43.859375 C 66.578125 41.320312 63.707031 33.039062 63.707031 33.039062 C 62.777344 33.257812 62.023438 33.234375 61.433594 33.121094 C 62.6875 33.207031 64.105469 32.769531 64.105469 32.769531 C 64.105469 32.769531 63.902344 30.699219 64.105469 29.699219 C 64.304688 28.695312 66.375 27.5625 67.511719 26.828125 C 68.644531 26.089844 68.582031 24.6875 68.582031 24.6875 C 69.648438 23.953125 71.453125 22.085938 71.386719 21.617188 C 71.316406 21.148438 70.515625 20.746094 69.714844 20.679688 C 68.914062 20.613281 68.582031 21.28125 67.710938 21.480469 C 66.84375 21.683594 66.777344 22.484375 66.777344 22.484375 C 66.777344 22.484375 65.640625 23.019531 64.238281 23.886719 C 62.835938 24.757812 61.96875 24.488281 61.96875 24.488281 C 61.96875 24.488281 60.832031 21.148438 60.097656 21.214844 C 59.363281 21.285156 60.097656 23.152344 60.03125 24.488281 C 59.964844 25.824219 59.230469 27.023438 59.296875 28.296875 C 59.363281 29.5625 59.761719 32.300781 59.761719 32.300781 C 59.800781 32.363281 59.839844 32.421875 59.882812 32.472656 L 59.429688 33.703125 C 59.429688 33.703125 57.960938 29.964844 56.558594 26.957031 C 55.15625 23.953125 51.726562 24.152344 51.726562 24.152344 C 51.726562 24.152344 51.851562 24.570312 51.648438 25.1875 C 51.738281 24.636719 51.726562 24.152344 51.726562 24.152344 C 51.726562 24.152344 49.011719 23.796875 47.230469 23.308594 C 45.449219 22.820312 47.097656 18.988281 47.097656 18.988281 C 48.121094 19.121094 49.367188 19.078125 50.613281 17.832031 C 51.859375 16.582031 52.484375 13.109375 52.664062 12.085938 C 52.839844 11.0625 53.195312 10.527344 52.21875 10.484375 C 51.238281 10.4375 50.703125 10.304688 50.703125 9.28125 C 50.703125 8.257812 49.097656 6.03125 49.097656 6.652344 C 49.097656 7.277344 48.296875 9.371094 48.296875 9.371094 L 42.285156 10.570312 L 41.796875 12.261719 C 41.796875 12.261719 40.636719 11.597656 39.523438 11.460938 C 38.410156 11.328125 38.945312 13.199219 38.945312 13.199219 C 38.945312 13.199219 39.257812 13.957031 40.058594 14.535156 C 40.859375 15.113281 41.617188 15.378906 42.242188 16.273438 C 42.863281 17.164062 42.597656 18.230469 42.507812 20.101562 C 42.421875 21.96875 41.4375 23.398438 39.972656 24.597656 C 38.503906 25.800781 35.339844 26.335938 35.339844 26.335938 C 35.339844 26.335938 34.585938 26.558594 32.3125 27.136719 C 30.042969 27.714844 29.441406 30.097656 29.441406 30.097656 C 29.441406 30.097656 25.367188 49.890625 25.1875 54.609375 C 25.007812 59.328125 28.394531 58.75 30.265625 58.214844 C 32.132812 57.683594 33.695312 56.253906 34.9375 55.5 C 36.132812 54.773438 40.097656 51.15625 40.433594 50.847656 C 40.488281 50.855469 40.539062 50.863281 40.59375 50.867188 L 42.644531 49.53125 C 42.644531 49.53125 48.832031 46.90625 49.277344 45.613281 C 49.722656 44.324219 48.519531 42.410156 48.519531 42.410156 C 48.519531 42.410156 48.433594 42.289062 48.40625 42.105469 C 48.59375 42.355469 48.980469 42.890625 49.144531 43.253906 C 49.367188 43.742188 49.457031 45.078125 49.320312 45.660156 C 49.1875 46.238281 48.609375 46.992188 48.609375 46.992188 C 48.609375 46.992188 50.011719 53.472656 50.210938 55.476562 C 50.414062 57.476562 48.808594 57.613281 48.808594 57.613281 C 48.808594 57.613281 37.054688 59.882812 34.851562 60.214844 C 32.644531 60.550781 32.578125 59.015625 32.578125 59.015625 C 32.578125 59.015625 31.042969 62.957031 29.976562 65.359375 C 28.90625 67.765625 28.707031 72.238281 28.707031 72.238281 L 61.632812 72.035156 C 61.296875 67.761719 57.222656 55.9375 57.089844 55.742188 C 56.957031 55.550781 53.953125 49.003906 53.820312 47.667969 Z M 43.988281 29.304688 C 40.355469 29.757812 37.855469 28.445312 36.511719 27.421875 C 38.304688 28.511719 41.515625 29.179688 43.988281 29.304688 Z M 39.421875 50.429688 C 39.632812 50.59375 39.878906 50.71875 40.164062 50.796875 C 39.886719 50.742188 39.640625 50.613281 39.421875 50.429688 Z M 44.023438 39.832031 C 43.847656 39.296875 43.132812 38.671875 42.953125 38.941406 C 42.773438 39.207031 42.464844 40.902344 41.976562 41.746094 C 41.484375 42.589844 40.816406 43.082031 40.640625 43.835938 C 40.460938 44.59375 40.148438 45.75 40.148438 45.75 L 38.058594 46.554688 C 38.058594 46.554688 38.023438 47.570312 38.320312 48.617188 C 37.953125 47.574219 37.835938 46.554688 37.835938 46.554688 L 31.199219 49.269531 C 31.199219 49.269531 29.597656 39.609375 29.421875 38.671875 C 29.242188 37.738281 30.132812 37.15625 30.132812 37.15625 C 30.132812 37.15625 43.890625 34.441406 44.871094 34.398438 C 45.847656 34.355469 46.027344 35.199219 46.027344 35.199219 L 47.320312 40.453125 C 47.320312 40.453125 47.511719 40.429688 47.769531 40.429688 C 46.71875 40.5625 45.234375 40.902344 44.339844 41.566406 C 44.335938 41.566406 44.199219 40.363281 44.023438 39.832031 Z M 48.398438 41.925781 C 48.414062 41.765625 48.476562 41.582031 48.652344 41.390625 C 48.851562 41.167969 49.03125 40.957031 49.113281 40.785156 C 49.144531 40.820312 49.167969 40.859375 49.1875 40.898438 C 49.40625 41.40625 48.675781 41.796875 48.398438 41.925781 Z M 87.078125 31.972656 C 86.746094 31.503906 87.214844 30.703125 87.214844 30.703125 L 91.753906 30.902344 C 91.753906 30.902344 91.957031 31.640625 92.023438 32.441406 C 92.089844 33.242188 90.890625 32.777344 90.554688 33.445312 C 90.21875 34.109375 89.753906 34.511719 88.753906 34.246094 C 87.753906 33.976562 88.617188 33.511719 87.683594 33.109375 C 86.746094 32.707031 87.078125 31.972656 87.078125 31.972656 Z M 88.148438 43.859375 C 94.023438 46.734375 97.828125 45.929688 97.828125 45.929688 C 97.828125 45.929688 99.96875 44.859375 101.101562 45.796875 C 102.234375 46.734375 101.347656 47.527344 101.035156 48.46875 C 100.96875 48.667969 103.371094 48.804688 103.371094 48.804688 C 103.371094 48.804688 102.503906 52.140625 101.101562 53.679688 C 99.699219 55.214844 98.363281 55.949219 96.625 55.882812 C 94.886719 55.816406 95.222656 53.476562 95.222656 53.476562 C 87.480469 53.945312 88.148438 43.859375 88.148438 43.859375 Z M 99.5 65.433594 C 98.097656 63.964844 97.429688 62.425781 95.894531 61.226562 C 94.355469 60.023438 91.753906 57.886719 89.015625 59.890625 C 89.015625 59.890625 87.882812 61.226562 88.816406 61.425781 C 89.75 61.628906 90.351562 61.492188 89.683594 62.363281 C 89.015625 63.230469 88.746094 64.433594 90.285156 64.433594 C 90.75 64.5 90.21875 65.300781 90.953125 65.769531 C 91.6875 66.234375 91.417969 66.4375 92.152344 65.96875 C 92.886719 65.503906 93.355469 65.503906 93.355469 65.503906 C 93.355469 65.503906 92.351562 66.972656 93.152344 67.371094 C 93.957031 67.769531 94.890625 66.90625 94.890625 66.90625 C 94.890625 66.90625 94.957031 68.773438 95.894531 68.976562 C 96.03125 69.003906 96.1875 69.023438 96.355469 69.042969 L 90.285156 69.042969 L 90.082031 67.371094 L 85.273438 55.683594 C 85.273438 55.683594 83.671875 55.148438 82.402344 55.285156 C 81.136719 55.417969 62.835938 55.484375 62.835938 55.484375 C 62.835938 55.484375 60.964844 56.285156 61.699219 57.488281 L 66.507812 69.507812 L 67.640625 69.976562 C 67.640625 69.976562 67.507812 71.910156 68.308594 72.179688 C 69.113281 72.449219 98.496094 72.3125 98.496094 72.3125 C 98.496094 72.3125 99.195312 71.914062 99.535156 71.230469 C 99.511719 71.402344 99.496094 71.511719 99.496094 71.511719 L 101.703125 71.78125 C 101.703125 71.78125 102.96875 71.046875 102.96875 69.242188 C 102.96875 67.441406 102.835938 66.839844 102.835938 66.839844 C 102.835938 66.839844 100.902344 66.902344 99.5 65.433594 Z M 99.542969 69.667969 C 99.667969 69.835938 99.746094 70.03125 99.703125 70.242188 C 99.664062 70.007812 99.609375 69.816406 99.542969 69.667969 Z M 99.542969 69.667969 " fill-opacity="1" fill-rule="evenodd"/></g><g clip-path="url(#1f6cb3ac0a)"><path fill="#d18f47" d="M 40.148438 45.753906 C 40.148438 45.753906 32.667969 47.9375 31.109375 49.582031 L 29.371094 38.40625 C 29.371094 38.40625 29.90625 36.9375 31.375 36.714844 C 32.84375 36.492188 45.046875 34.445312 45.046875 34.445312 C 45.046875 34.445312 46.246094 34.753906 46.46875 36 C 46.691406 37.25 47.359375 40.1875 47.359375 40.1875 L 43.929688 41.789062 C 43.929688 41.789062 44.507812 40.589844 44.019531 39.832031 C 43.527344 39.070312 42.949219 38.941406 42.949219 38.941406 C 42.949219 38.941406 42.371094 41.34375 41.96875 41.746094 C 41.570312 42.144531 40.546875 43.484375 40.457031 44.195312 C 40.371094 44.90625 40.148438 45.753906 40.148438 45.753906 Z M 48.476562 46.6875 C 47.226562 48.15625 41.660156 49.9375 41.660156 49.9375 C 40.546875 51.539062 32.265625 57.460938 32.265625 57.460938 C 33.066406 60.710938 34.449219 60.578125 34.449219 60.578125 C 34.449219 60.578125 46.871094 58.394531 48.828125 57.859375 C 50.785156 57.328125 50.164062 55.636719 50.164062 55.636719 Z M 87.210938 30.703125 L 91.753906 30.902344 C 91.753906 30.902344 93.554688 27.03125 93.691406 25.558594 C 93.824219 24.089844 92.820312 22.351562 90.816406 21.554688 C 88.816406 20.753906 87.679688 21.621094 86.078125 22.753906 C 84.472656 23.890625 84.875 26.09375 85.273438 27.496094 C 85.675781 28.902344 87.210938 30.703125 87.210938 30.703125 Z M 122.339844 67.167969 C 122.207031 64.496094 118.199219 58.285156 113.792969 53.410156 C 109.382812 48.535156 103.375 48.800781 103.375 48.800781 C 103.375 48.800781 102.90625 50 102.105469 52.007812 C 101.304688 54.011719 98.964844 55.746094 97.164062 56.011719 C 95.363281 56.28125 95.226562 53.476562 95.226562 53.476562 C 92.023438 53.945312 89.953125 51.609375 89.953125 51.609375 C 89.953125 51.609375 89.285156 52.007812 87.679688 53.078125 C 86.078125 54.148438 85.273438 56.148438 85.273438 56.148438 L 88.679688 63.761719 L 89.683594 62.359375 C 89.683594 62.359375 89.683594 61.828125 88.816406 61.425781 C 87.945312 61.023438 89.015625 59.886719 89.015625 59.886719 C 91.820312 57.414062 97.296875 61.757812 98.765625 64.363281 C 100.234375 66.96875 102.839844 66.835938 102.839844 66.835938 C 102.839844 66.835938 102.839844 67.503906 102.972656 69.242188 C 103.105469 70.976562 101.703125 71.777344 101.703125 71.777344 L 104.042969 72.378906 C 104.042969 72.378906 119.003906 72.3125 120.203125 71.84375 C 121.40625 71.378906 122.476562 69.839844 122.339844 67.167969 Z M 93.824219 67.703125 C 93.15625 67.4375 92.554688 66.902344 92.820312 66.300781 C 93.089844 65.703125 93.089844 65.703125 93.089844 65.703125 C 93.089844 65.703125 92.953125 65.167969 92.421875 65.5 C 91.886719 65.835938 91.621094 66.300781 90.953125 65.769531 C 90.285156 65.234375 91.085938 64.433594 91.085938 64.433594 L 88.816406 64.632812 L 90.21875 68.171875 L 90.285156 69.042969 L 95.894531 68.976562 L 94.890625 66.90625 C 94.894531 66.902344 94.492188 67.96875 93.824219 67.703125 Z M 93.824219 67.703125 " fill-opacity="1" fill-rule="evenodd"/></g><path fill="#000000" d="M 86.140625 29.46875 C 86.257812 29.648438 86.773438 30.550781 86.886719 30.878906 C 86.886719 30.886719 86.886719 30.894531 86.886719 30.902344 C 86.691406 31.132812 86.53125 31.449219 86.5625 31.785156 C 86.578125 31.964844 86.648438 32.128906 86.761719 32.261719 C 86.6875 32.496094 86.664062 32.769531 86.777344 33.011719 C 86.882812 33.246094 87.097656 33.40625 87.382812 33.457031 C 87.617188 33.496094 87.871094 33.527344 88.125 33.554688 C 88.136719 34.160156 88.636719 34.65625 89.246094 34.65625 L 89.703125 34.65625 C 90.324219 34.65625 90.828125 34.148438 90.828125 33.53125 L 90.828125 33.480469 C 90.886719 33.46875 90.945312 33.460938 91.003906 33.453125 C 91.121094 33.429688 92.167969 33.222656 92.355469 32.582031 C 92.390625 32.453125 92.417969 32.21875 92.238281 31.964844 C 92.300781 31.75 92.351562 31.421875 92.238281 31.125 C 92.191406 31.011719 92.125 30.910156 92.039062 30.828125 C 92.082031 30.113281 92.484375 29.5 92.914062 28.851562 C 93.351562 28.199219 93.800781 27.523438 93.910156 26.683594 C 94.007812 25.925781 93.941406 25.101562 93.71875 24.3125 C 93.203125 22.46875 91.855469 21.183594 90.210938 20.964844 C 88.730469 20.769531 87.195312 21.226562 86.101562 22.191406 C 85.085938 23.082031 84.527344 24.320312 84.53125 25.671875 C 84.527344 27.027344 85.324219 28.292969 86.140625 29.46875 Z M 88.800781 26.972656 C 89 26.902344 89.203125 26.808594 89.402344 26.6875 C 89.605469 26.808594 89.808594 26.902344 90.003906 26.972656 C 89.746094 28.125 89.902344 30.046875 89.953125 30.605469 C 89.523438 30.609375 89.160156 30.613281 88.851562 30.613281 C 88.902344 30.070312 89.058594 28.128906 88.800781 26.972656 Z M 91.488281 31.308594 C 91.535156 31.332031 91.550781 31.355469 91.5625 31.378906 C 91.605469 31.484375 91.574219 31.664062 91.53125 31.800781 L 87.3125 31.800781 C 87.28125 31.765625 87.277344 31.738281 87.277344 31.71875 C 87.269531 31.617188 87.34375 31.464844 87.453125 31.34375 C 88.21875 31.339844 90.785156 31.316406 91.488281 31.308594 Z M 89.699219 33.933594 L 89.242188 33.933594 C 89.039062 33.933594 88.875 33.789062 88.839844 33.597656 C 88.949219 33.597656 89.0625 33.605469 89.171875 33.605469 C 89.488281 33.605469 89.796875 33.589844 90.101562 33.566406 C 90.082031 33.769531 89.910156 33.933594 89.699219 33.933594 Z M 90.867188 32.742188 C 89.859375 32.929688 88.535156 32.929688 87.5 32.746094 C 87.457031 32.738281 87.429688 32.726562 87.425781 32.710938 C 87.40625 32.671875 87.414062 32.601562 87.433594 32.515625 L 91.488281 32.515625 C 91.339844 32.605469 91.109375 32.699219 90.867188 32.742188 Z M 86.570312 22.722656 C 87.367188 22.023438 88.4375 21.632812 89.523438 21.632812 C 89.71875 21.632812 89.914062 21.644531 90.113281 21.671875 C 91.488281 21.851562 92.578125 22.910156 93.023438 24.5 C 93.21875 25.199219 93.277344 25.917969 93.195312 26.585938 C 93.109375 27.257812 92.722656 27.835938 92.3125 28.449219 C 91.878906 29.101562 91.433594 29.765625 91.328125 30.589844 C 91.097656 30.59375 90.878906 30.59375 90.675781 30.597656 C 90.574219 29.570312 90.515625 27.9375 90.703125 27.113281 C 91.324219 27.152344 91.859375 26.941406 92.195312 26.589844 C 92.527344 26.238281 92.582031 25.777344 92.324219 25.449219 C 92.066406 25.121094 91.792969 25.066406 91.601562 25.078125 C 91.117188 25.101562 90.714844 25.585938 90.265625 26.300781 C 90.0625 26.234375 89.847656 26.125 89.621094 25.96875 C 89.578125 25.9375 89.53125 25.914062 89.480469 25.90625 C 89.480469 25.90625 89.476562 25.90625 89.476562 25.90625 C 89.464844 25.902344 89.445312 25.898438 89.433594 25.898438 C 89.421875 25.898438 89.414062 25.898438 89.402344 25.898438 C 89.398438 25.898438 89.390625 25.898438 89.386719 25.898438 C 89.316406 25.902344 89.246094 25.929688 89.1875 25.972656 C 88.964844 26.128906 88.746094 26.234375 88.542969 26.300781 C 88.09375 25.582031 87.691406 25.101562 87.207031 25.078125 C 87.019531 25.066406 86.746094 25.121094 86.484375 25.449219 C 86.226562 25.777344 86.28125 26.234375 86.617188 26.589844 C 86.949219 26.941406 87.480469 27.152344 88.105469 27.113281 C 88.296875 27.945312 88.234375 29.59375 88.132812 30.621094 C 87.871094 30.625 87.683594 30.625 87.546875 30.625 C 87.347656 29.984375 86.742188 29.074219 86.734375 29.0625 C 85.984375 27.976562 85.246094 26.820312 85.242188 25.664062 C 85.238281 24.523438 85.710938 23.480469 86.570312 22.722656 Z M 91.070312 26.382812 C 91.425781 25.867188 91.585938 25.796875 91.644531 25.792969 C 91.65625 25.792969 91.699219 25.820312 91.757812 25.894531 C 91.792969 25.9375 91.726562 26.042969 91.671875 26.097656 C 91.550781 26.226562 91.34375 26.339844 91.070312 26.382812 Z M 87.734375 26.382812 C 87.460938 26.339844 87.253906 26.226562 87.136719 26.097656 C 87.082031 26.042969 87.015625 25.9375 87.050781 25.894531 C 87.109375 25.820312 87.152344 25.792969 87.164062 25.792969 C 87.222656 25.796875 87.382812 25.867188 87.734375 26.382812 Z M 87.734375 26.382812 " fill-opacity="1" fill-rule="nonzero"/><path fill="#000000" d="M 82.09375 27.074219 C 81.894531 27.042969 81.714844 27.175781 81.679688 27.371094 C 81.648438 27.566406 81.78125 27.75 81.976562 27.785156 L 83.484375 28.035156 C 83.5 28.039062 83.523438 28.039062 83.542969 28.039062 C 83.714844 28.039062 83.867188 27.914062 83.898438 27.742188 C 83.929688 27.542969 83.796875 27.359375 83.601562 27.328125 Z M 82.09375 27.074219 " fill-opacity="1" fill-rule="nonzero"/><path fill="#000000" d="M 83.46875 19.84375 L 84.6875 20.765625 C 84.753906 20.816406 84.828125 20.839844 84.90625 20.839844 C 85.015625 20.839844 85.121094 20.789062 85.195312 20.695312 C 85.3125 20.539062 85.28125 20.3125 85.125 20.195312 L 83.90625 19.269531 C 83.75 19.152344 83.523438 19.183594 83.402344 19.339844 C 83.28125 19.5 83.3125 19.722656 83.46875 19.84375 Z M 83.46875 19.84375 " fill-opacity="1" fill-rule="nonzero"/><path fill="#000000" d="M 96.632812 26.90625 L 95.125 27.160156 C 94.929688 27.191406 94.796875 27.375 94.832031 27.574219 C 94.859375 27.746094 95.011719 27.871094 95.183594 27.871094 C 95.203125 27.871094 95.226562 27.871094 95.246094 27.867188 L 96.753906 27.617188 C 96.949219 27.582031 97.082031 27.398438 97.046875 27.203125 C 97.015625 27.007812 96.828125 26.875 96.632812 26.90625 Z M 96.632812 26.90625 " fill-opacity="1" fill-rule="nonzero"/><path fill="#000000" d="M 81.039062 23.171875 L 83.050781 23.925781 C 83.089844 23.941406 83.132812 23.949219 83.175781 23.949219 C 83.320312 23.949219 83.457031 23.859375 83.511719 23.71875 C 83.582031 23.53125 83.488281 23.324219 83.300781 23.253906 L 81.289062 22.5 C 81.105469 22.433594 80.898438 22.527344 80.828125 22.710938 C 80.757812 22.898438 80.855469 23.101562 81.039062 23.171875 Z M 81.039062 23.171875 " fill-opacity="1" fill-rule="nonzero"/><path fill="#000000" d="M 93.554688 20.738281 C 93.628906 20.738281 93.703125 20.714844 93.769531 20.667969 L 94.988281 19.742188 C 95.148438 19.621094 95.179688 19.398438 95.058594 19.238281 C 94.9375 19.082031 94.714844 19.050781 94.554688 19.171875 L 93.335938 20.09375 C 93.179688 20.214844 93.148438 20.4375 93.269531 20.597656 C 93.335938 20.6875 93.441406 20.738281 93.554688 20.738281 Z M 93.554688 20.738281 " fill-opacity="1" fill-rule="nonzero"/><path fill="#000000" d="M 94.945312 23.613281 C 95 23.757812 95.136719 23.847656 95.28125 23.847656 C 95.320312 23.847656 95.363281 23.839844 95.40625 23.824219 L 97.417969 23.070312 C 97.605469 23 97.699219 22.792969 97.628906 22.605469 C 97.558594 22.421875 97.351562 22.328125 97.167969 22.394531 L 95.15625 23.148438 C 94.96875 23.222656 94.875 23.429688 94.945312 23.613281 Z M 94.945312 23.613281 " fill-opacity="1" fill-rule="nonzero"/><path fill="#000000" d="M 89.558594 19.847656 C 89.757812 19.847656 89.917969 19.6875 89.917969 19.488281 L 89.917969 17.144531 C 89.917969 16.945312 89.757812 16.785156 89.558594 16.785156 C 89.359375 16.785156 89.199219 16.945312 89.199219 17.144531 L 89.199219 19.488281 C 89.199219 19.6875 89.359375 19.847656 89.558594 19.847656 Z M 89.558594 19.847656 " fill-opacity="1" fill-rule="nonzero"/><g clip-path="url(#3090b94c42)"><path fill="#000000" d="M 126.828125 72.019531 L 120.617188 72.019531 C 121.042969 71.695312 121.433594 71.269531 121.753906 70.773438 C 122.605469 69.449219 122.84375 67.789062 122.425781 66.101562 C 121.554688 62.558594 115.523438 53.691406 111.472656 50.71875 C 108.691406 48.679688 104.898438 48.261719 102.691406 48.210938 C 103.390625 47.609375 103.882812 46.578125 104.089844 45.25 C 104.492188 42.660156 103.71875 39.015625 101.5 37.363281 C 97.914062 34.699219 94.222656 35.976562 92.34375 36.976562 C 92.097656 37.109375 91.875 37.230469 91.660156 37.347656 C 90.109375 38.191406 89.402344 38.578125 87.394531 38.316406 C 86.109375 38.152344 84.667969 38.089844 83.679688 38.898438 C 82.976562 39.476562 82.585938 40.414062 82.492188 41.777344 C 82.242188 47.238281 87.402344 48.636719 88.507812 48.875 C 88.777344 49.804688 89.152344 50.710938 89.667969 51.453125 C 86.800781 52.90625 85.734375 54.546875 85.34375 55.480469 C 85.023438 55.191406 84.601562 55.023438 84.148438 55.023438 C 84.144531 55.023438 84.140625 55.023438 84.136719 55.023438 L 63.160156 55.140625 C 62.570312 55.144531 62.015625 55.4375 61.683594 55.929688 C 61.351562 56.421875 61.28125 57.039062 61.496094 57.59375 L 65.988281 69.089844 C 66.214844 69.667969 66.710938 70.074219 67.300781 70.191406 L 67.300781 70.609375 C 67.300781 71.160156 67.535156 71.65625 67.917969 72.023438 L 62.085938 72.023438 C 60.988281 64.328125 55.878906 52.21875 54.328125 48.660156 C 54.0625 48.0625 53.976562 47.402344 54.070312 46.753906 L 54.265625 45.4375 C 55.875 48.597656 60.152344 53.128906 63.234375 53.128906 C 63.5 53.128906 63.757812 53.09375 64.003906 53.023438 C 67.402344 52.039062 67.519531 49.160156 67.335938 46.042969 C 67.203125 43.765625 66.164062 39.277344 64.257812 32.699219 L 64.25 32.675781 C 63.707031 30.800781 64.328125 29.273438 66.101562 28.136719 C 67.949219 26.949219 68.414062 26.523438 68.640625 25.101562 C 69.304688 24.648438 71.328125 23.191406 71.59375 22.253906 C 71.722656 21.808594 71.609375 21.488281 71.492188 21.296875 C 71.394531 21.136719 71.261719 21.015625 71.125 20.925781 C 71.074219 20.859375 70.996094 20.816406 70.910156 20.800781 C 70.785156 20.742188 70.675781 20.707031 70.601562 20.6875 C 69.570312 19.984375 68.34375 20.804688 67.867188 21.1875 C 67.746094 21.140625 67.621094 21.117188 67.484375 21.128906 C 66.882812 21.175781 66.695312 21.640625 66.628906 22.179688 L 66.429688 22.320312 C 65.125 23.226562 63.699219 23.9375 62.191406 24.441406 C 62.152344 24.226562 62.105469 23.996094 62.050781 23.75 C 61.878906 22.972656 61.277344 21.261719 60.515625 20.945312 C 60.308594 20.855469 60.089844 20.871094 59.90625 20.984375 C 59.410156 21.296875 59.511719 21.890625 59.621094 22.519531 C 59.699219 22.980469 59.796875 23.550781 59.738281 24.195312 C 59.691406 24.738281 59.523438 25.324219 59.355469 25.894531 C 59.066406 26.902344 58.761719 27.945312 59.089844 28.886719 C 59.402344 29.773438 59.496094 30.695312 59.386719 32.3125 C 58.417969 29.597656 56.398438 25.226562 54.371094 24.300781 C 53.1875 23.761719 51.613281 23.660156 50.222656 23.570312 C 48.921875 23.488281 47.578125 23.402344 47.226562 22.941406 C 46.675781 22.222656 46.925781 20.339844 47.140625 19.332031 C 48.167969 19.578125 49.101562 19.417969 49.914062 18.863281 C 52.449219 17.121094 53 11.976562 53.09375 10.75 C 53.363281 10.777344 53.605469 10.828125 53.792969 10.921875 C 53.910156 10.984375 54.046875 10.972656 54.15625 10.902344 C 54.265625 10.828125 54.324219 10.703125 54.3125 10.574219 C 54.304688 10.492188 54.125 8.523438 53.078125 6.511719 C 51.667969 3.804688 49.363281 2.351562 46.414062 2.296875 C 42.792969 2.234375 40.269531 3.023438 38.710938 4.722656 C 37.414062 6.132812 36.773438 8.167969 36.695312 11.125 C 36.574219 15.628906 36.394531 22.4375 32.121094 26.980469 C 32.066406 27.011719 32.015625 27.039062 31.964844 27.066406 C 30.273438 28.011719 29.210938 29.25 28.804688 30.742188 C 27.957031 33.882812 26.730469 41.84375 25.917969 47.109375 C 25.617188 49.070312 25.378906 50.621094 25.234375 51.433594 C 25.023438 52.621094 24.480469 56.632812 26.277344 58.335938 C 26.8125 58.847656 27.5 59.101562 28.316406 59.101562 C 28.65625 59.101562 29.023438 59.058594 29.410156 58.96875 C 30.210938 58.785156 31.136719 58.378906 32.117188 57.835938 L 32.265625 58.707031 C 31.769531 59.625 28.601562 65.703125 28.550781 72.015625 L 23.175781 72.015625 C 22.976562 72.015625 22.816406 72.175781 22.816406 72.375 C 22.816406 72.574219 22.976562 72.734375 23.175781 72.734375 L 126.828125 72.734375 C 127.027344 72.734375 127.1875 72.574219 127.1875 72.375 C 127.1875 72.175781 127.023438 72.019531 126.828125 72.019531 Z M 95.644531 53.695312 C 96.148438 53.515625 97.230469 53.117188 98.117188 52.164062 C 98.25 52.019531 98.242188 51.792969 98.097656 51.65625 C 97.953125 51.523438 97.726562 51.53125 97.589844 51.675781 C 96.796875 52.535156 95.789062 52.886719 95.359375 53.035156 C 95.335938 53.042969 95.320312 53.046875 95.304688 53.054688 C 95.277344 53.054688 95.246094 53.058594 95.214844 53.066406 C 95.203125 53.074219 93.664062 53.480469 91.316406 52.078125 C 88.992188 50.695312 88.59375 45.773438 88.523438 44.222656 C 89.371094 44.734375 91.191406 45.644531 93.949219 46.070312 C 93.898438 46.121094 93.855469 46.179688 93.8125 46.246094 C 93.792969 46.277344 93.789062 46.320312 93.808594 46.359375 C 93.839844 46.417969 93.914062 46.445312 93.972656 46.417969 L 93.992188 46.40625 C 94.117188 46.347656 94.253906 46.285156 94.382812 46.246094 C 94.503906 46.207031 94.628906 46.183594 94.75 46.175781 C 94.898438 46.191406 95.046875 46.207031 95.199219 46.21875 C 95.308594 46.246094 95.414062 46.28125 95.539062 46.3125 L 95.5625 46.316406 C 95.609375 46.328125 95.667969 46.316406 95.710938 46.277344 C 95.714844 46.273438 95.71875 46.265625 95.722656 46.261719 C 96.390625 46.304688 97.097656 46.316406 97.847656 46.289062 C 97.921875 46.289062 97.992188 46.261719 98.050781 46.21875 C 98.117188 46.167969 99.714844 45 100.925781 45.984375 C 101.886719 46.769531 100.660156 48.363281 100.648438 48.378906 C 100.558594 48.492188 100.546875 48.644531 100.613281 48.773438 C 100.679688 48.898438 100.816406 48.96875 100.960938 48.957031 C 100.980469 48.957031 101.699219 48.902344 102.789062 48.9375 C 101.972656 53.308594 98.828125 55.722656 96.921875 55.722656 C 96.519531 55.722656 96.222656 55.601562 96.011719 55.359375 C 95.636719 54.917969 95.609375 54.140625 95.644531 53.695312 Z M 85.882812 47.046875 C 84.003906 45.84375 83.105469 44.078125 83.207031 41.816406 C 83.289062 40.671875 83.59375 39.898438 84.136719 39.453125 C 84.753906 38.949219 85.699219 38.820312 87.300781 39.027344 C 89.539062 39.320312 90.414062 38.84375 92.003906 37.976562 C 92.214844 37.859375 92.433594 37.738281 92.679688 37.609375 C 94.792969 36.484375 97.964844 35.628906 101.066406 37.9375 C 103.0625 39.421875 103.75 42.753906 103.378906 45.136719 C 103.148438 46.621094 102.546875 47.644531 101.71875 47.96875 C 102.082031 47.160156 102.226562 46.125 101.375 45.429688 C 99.910156 44.238281 98.144531 45.285156 97.710938 45.578125 C 91.683594 45.757812 88.445312 43.3125 88.414062 43.289062 C 88.257812 43.167969 88.03125 43.195312 87.910156 43.351562 C 87.855469 43.417969 87.835938 43.496094 87.835938 43.574219 C 87.808594 43.628906 87.789062 43.6875 87.789062 43.75 C 87.789062 43.90625 87.808594 45.949219 88.304688 48.085938 C 87.738281 47.941406 86.800781 47.632812 85.882812 47.046875 Z M 90.125 52.023438 C 90.371094 52.285156 90.644531 52.515625 90.945312 52.695312 C 92.792969 53.796875 94.207031 53.886719 94.917969 53.832031 C 94.898438 54.371094 94.960938 55.234375 95.460938 55.820312 C 95.808594 56.230469 96.296875 56.441406 96.917969 56.441406 C 99.136719 56.441406 102.640625 53.84375 103.507812 48.96875 C 105.664062 49.109375 108.761719 49.621094 111.042969 51.292969 C 114.914062 54.136719 120.894531 62.910156 121.726562 66.273438 C 122.09375 67.765625 121.886719 69.226562 121.148438 70.382812 C 120.601562 71.226562 119.804688 71.839844 119.070312 71.980469 C 119.03125 71.984375 118.996094 72 118.964844 72.015625 L 105.429688 72.015625 C 104.496094 71.929688 103.550781 71.773438 102.699219 71.59375 C 103.851562 69.875 103.363281 68.03125 103.058594 67.25 C 103.296875 67.257812 103.550781 67.265625 103.824219 67.265625 C 103.996094 67.265625 104.175781 67.261719 104.359375 67.257812 C 108.648438 67.171875 114.09375 66.503906 114.148438 66.5 C 114.34375 66.476562 114.488281 66.296875 114.460938 66.101562 C 114.4375 65.90625 114.253906 65.765625 114.0625 65.789062 C 114.046875 65.789062 113.507812 65.855469 112.644531 65.949219 C 111.058594 63.585938 108.933594 60.832031 108.914062 60.804688 C 108.789062 60.648438 108.566406 60.621094 108.410156 60.738281 C 108.253906 60.863281 108.222656 61.085938 108.34375 61.242188 C 108.367188 61.269531 110.292969 63.765625 111.835938 66.03125 C 109.859375 66.234375 106.894531 66.488281 104.347656 66.542969 C 100.914062 66.613281 100.425781 66.03125 99.363281 64.757812 C 99.144531 64.5 98.902344 64.210938 98.609375 63.894531 C 98.367188 63.632812 98.117188 63.355469 97.863281 63.074219 C 96.316406 61.363281 94.566406 59.421875 92.507812 58.9375 C 90.179688 58.386719 88.875 59.722656 88.699219 59.917969 C 88.390625 60.183594 87.949219 60.835938 88.320312 61.582031 C 88.496094 61.933594 88.890625 62.054688 89.347656 62.054688 C 89.351562 62.054688 89.359375 62.054688 89.367188 62.054688 C 89.007812 62.457031 88.796875 62.878906 88.699219 63.253906 L 85.855469 56.234375 C 85.9375 55.824219 86.535156 53.796875 90.125 52.023438 Z M 68.019531 70.230469 L 88.855469 70.230469 C 89.453125 70.230469 90.011719 69.933594 90.34375 69.4375 C 90.347656 69.433594 90.347656 69.429688 90.351562 69.425781 C 90.375 69.429688 90.394531 69.433594 90.417969 69.433594 L 98.8125 69.433594 C 98.992188 69.433594 99.140625 69.558594 99.140625 69.710938 L 99.140625 70.828125 C 99.140625 70.890625 99.132812 70.945312 99.121094 71.007812 C 99.121094 71.011719 99.117188 71.015625 99.113281 71.019531 C 99.109375 71.046875 99.101562 71.070312 99.101562 71.097656 C 98.964844 71.566406 98.496094 71.917969 97.933594 71.917969 L 69.46875 71.917969 C 68.667969 71.917969 68.019531 71.328125 68.019531 70.605469 Z M 90.835938 66.203125 C 91.222656 66.515625 91.898438 66.582031 92.527344 66.011719 C 92.644531 65.90625 92.769531 65.8125 92.90625 65.730469 C 92.671875 66.027344 92.496094 66.359375 92.472656 66.699219 C 92.453125 66.972656 92.519531 67.375 92.960938 67.71875 C 93.40625 68.066406 93.816406 68.078125 94.078125 68.027344 C 94.355469 67.972656 94.585938 67.832031 94.769531 67.675781 C 94.929688 68.085938 95.167969 68.4375 95.398438 68.710938 L 90.625 68.710938 C 90.675781 68.394531 90.644531 68.066406 90.519531 67.757812 L 89.320312 64.804688 C 89.691406 64.960938 90.113281 64.949219 90.464844 64.886719 C 90.328125 65.503906 90.542969 65.964844 90.835938 66.203125 Z M 98.8125 68.710938 L 96.414062 68.710938 C 96.210938 68.542969 95.4375 67.847656 95.328125 66.960938 C 95.328125 66.949219 95.332031 66.941406 95.332031 66.933594 C 95.359375 66.917969 95.609375 66.785156 96.46875 67.144531 C 96.65625 67.222656 96.863281 67.132812 96.941406 66.949219 C 97.015625 66.769531 96.929688 66.558594 96.746094 66.480469 C 95.921875 66.136719 95.332031 66.085938 94.953125 66.324219 C 94.761719 66.445312 94.660156 66.621094 94.621094 66.765625 C 94.519531 66.929688 94.25 67.265625 93.9375 67.324219 C 93.765625 67.355469 93.589844 67.300781 93.402344 67.152344 C 93.199219 66.996094 93.183594 66.855469 93.1875 66.753906 C 93.226562 66.269531 93.980469 65.597656 94.515625 65.300781 C 94.554688 65.277344 94.621094 65.242188 94.679688 65.191406 C 95.1875 65.082031 95.808594 65 96.335938 65.078125 C 96.527344 65.109375 96.710938 64.972656 96.742188 64.773438 C 96.769531 64.578125 96.636719 64.398438 96.4375 64.367188 C 95.828125 64.277344 95.132812 64.367188 94.566406 64.484375 C 94.105469 64.363281 92.757812 64.839844 92.046875 65.480469 C 91.773438 65.726562 91.472656 65.796875 91.292969 65.648438 C 91.105469 65.492188 91.0625 65.09375 91.375 64.542969 C 91.589844 64.347656 92.992188 63.1875 95.488281 63.867188 C 95.679688 63.917969 95.875 63.804688 95.929688 63.613281 C 95.980469 63.421875 95.871094 63.226562 95.679688 63.175781 C 92.847656 62.402344 91.210938 63.71875 90.886719 64.015625 C 90.582031 64.144531 89.859375 64.359375 89.472656 64.078125 C 89.371094 64 89.328125 63.808594 89.359375 63.574219 C 89.453125 62.941406 90.058594 62.117188 91.207031 61.65625 C 91.234375 61.644531 91.261719 61.632812 91.285156 61.625 C 91.773438 61.476562 93.027344 61.269531 94.785156 62.230469 C 94.839844 62.261719 94.898438 62.273438 94.957031 62.273438 C 95.085938 62.273438 95.210938 62.207031 95.273438 62.085938 C 95.371094 61.914062 95.304688 61.695312 95.128906 61.601562 C 93.335938 60.621094 91.957031 60.726562 91.253906 60.890625 C 91.21875 60.890625 91.179688 60.894531 91.144531 60.910156 C 91.101562 60.925781 91.0625 60.941406 91.019531 60.957031 C 90.933594 60.980469 90.871094 61.007812 90.824219 61.027344 C 89.894531 61.34375 89.039062 61.433594 88.957031 61.265625 C 88.742188 60.835938 89.128906 60.496094 89.171875 60.460938 C 89.179688 60.449219 89.191406 60.441406 89.199219 60.429688 C 89.207031 60.425781 89.214844 60.417969 89.21875 60.414062 C 89.261719 60.363281 90.324219 59.164062 92.335938 59.640625 C 94.179688 60.074219 95.851562 61.925781 97.324219 63.5625 C 97.582031 63.84375 97.828125 64.121094 98.078125 64.386719 C 98.359375 64.6875 98.59375 64.972656 98.804688 65.222656 C 99.746094 66.347656 100.378906 66.988281 102.25 67.195312 C 102.253906 67.195312 102.253906 67.199219 102.253906 67.203125 C 102.300781 67.296875 103.429688 69.519531 101.933594 71.429688 C 101 71.210938 100.246094 70.996094 99.855469 70.878906 C 99.855469 70.863281 99.855469 70.84375 99.855469 70.828125 L 99.855469 69.710938 C 99.859375 69.15625 99.390625 68.710938 98.8125 68.710938 Z M 66.65625 68.828125 L 62.164062 57.328125 C 62.03125 56.996094 62.074219 56.632812 62.277344 56.332031 C 62.480469 56.03125 62.800781 55.859375 63.160156 55.859375 L 84.140625 55.742188 C 84.144531 55.742188 84.144531 55.742188 84.148438 55.742188 C 84.589844 55.742188 84.980469 56.007812 85.144531 56.414062 L 89.855469 68.03125 C 89.992188 68.367188 89.953125 68.734375 89.75 69.039062 C 89.546875 69.339844 89.222656 69.511719 88.855469 69.511719 L 67.660156 69.511719 C 67.214844 69.511719 66.820312 69.242188 66.65625 68.828125 Z M 99.683594 71.578125 C 100.023438 71.683594 100.589844 71.84375 101.304688 72.023438 L 99.375 72.023438 C 99.5 71.886719 99.601562 71.738281 99.683594 71.578125 Z M 70.902344 22.054688 C 70.773438 22.511719 69.703125 23.433594 68.738281 24.152344 C 68.757812 23.730469 68.753906 23.257812 68.699219 22.808594 C 69.089844 22.433594 70.027344 21.65625 70.738281 21.527344 C 70.792969 21.566406 70.84375 21.617188 70.878906 21.671875 C 70.941406 21.773438 70.949219 21.898438 70.902344 22.054688 Z M 69.761719 21.136719 C 69.273438 21.394531 68.828125 21.742188 68.519531 22.007812 C 68.480469 21.894531 68.4375 21.789062 68.382812 21.695312 C 68.6875 21.464844 69.246094 21.105469 69.761719 21.136719 Z M 60.046875 26.09375 C 60.222656 25.492188 60.398438 24.871094 60.457031 24.257812 C 60.519531 23.519531 60.414062 22.898438 60.328125 22.402344 C 60.277344 22.097656 60.214844 21.726562 60.269531 21.617188 C 60.535156 21.765625 61.105469 22.804688 61.351562 23.902344 C 61.609375 25.066406 61.679688 25.851562 61.679688 25.859375 C 61.695312 26.058594 61.875 26.203125 62.066406 26.1875 C 62.265625 26.171875 62.410156 26 62.394531 25.800781 C 62.390625 25.78125 62.371094 25.546875 62.316406 25.15625 C 63.824219 24.664062 65.253906 23.96875 66.574219 23.085938 C 66.554688 23.472656 66.511719 23.878906 66.375 24.230469 C 66.128906 24.863281 65.613281 25.023438 64.558594 25.296875 C 64.105469 25.414062 63.597656 25.546875 63.042969 25.761719 C 61.105469 26.503906 61.011719 28.664062 61.007812 28.753906 C 61 28.953125 61.15625 29.117188 61.351562 29.125 C 61.554688 29.125 61.714844 28.976562 61.722656 28.78125 C 61.726562 28.710938 61.808594 27.003906 63.296875 26.429688 C 63.8125 26.234375 64.304688 26.101562 64.738281 25.992188 C 65.761719 25.722656 66.652344 25.492188 67.042969 24.492188 C 67.253906 23.941406 67.277344 23.351562 67.300781 22.828125 C 67.328125 22.148438 67.367188 21.859375 67.535156 21.847656 C 67.566406 21.847656 67.605469 21.847656 67.664062 21.910156 C 67.996094 22.265625 68.128906 23.613281 67.953125 24.847656 C 67.777344 26.089844 67.566406 26.339844 65.710938 27.535156 C 63.761719 28.789062 62.996094 30.527344 63.480469 32.582031 C 61.746094 33.34375 60.183594 32.152344 60.117188 32.097656 C 60.207031 30.527344 60.089844 29.589844 59.765625 28.65625 C 59.515625 27.925781 59.773438 27.035156 60.046875 26.09375 Z M 49.507812 18.265625 C 48.777344 18.765625 47.953125 18.855469 46.984375 18.539062 C 46.890625 18.511719 46.789062 18.519531 46.699219 18.566406 C 46.609375 18.613281 46.546875 18.695312 46.523438 18.792969 C 46.4375 19.132812 45.707031 22.136719 46.652344 23.371094 C 47.203125 24.09375 48.582031 24.183594 50.175781 24.285156 C 50.550781 24.308594 50.941406 24.335938 51.332031 24.367188 C 51.359375 24.941406 51.214844 27.808594 45.746094 28.722656 C 39.964844 29.6875 36.644531 27.253906 35.71875 26.441406 C 36.496094 26.265625 37.027344 26.203125 37.050781 26.203125 C 39.792969 25.730469 41.464844 24.441406 42.3125 22.144531 C 42.898438 20.554688 43.320312 16.933594 42.078125 15.382812 C 41.648438 14.84375 41.058594 14.519531 40.535156 14.230469 C 39.542969 13.683594 39.035156 13.347656 39.214844 12.28125 C 39.269531 11.957031 39.375 11.769531 39.527344 11.714844 C 39.96875 11.570312 40.921875 12.234375 41.457031 12.75 C 41.554688 12.839844 41.691406 12.871094 41.816406 12.832031 C 41.9375 12.792969 42.035156 12.691406 42.058594 12.5625 L 42.375 10.996094 C 43.039062 10.753906 45.480469 9.925781 48.285156 9.839844 C 48.386719 9.839844 48.480469 9.792969 48.546875 9.71875 C 48.59375 9.664062 49.449219 8.644531 49.425781 7.171875 C 49.792969 7.742188 50.144531 8.554688 50.136719 9.578125 C 50.128906 10.636719 51.300781 10.667969 52.242188 10.699219 C 52.285156 10.699219 52.328125 10.699219 52.371094 10.703125 C 52.277344 11.867188 51.746094 16.730469 49.507812 18.265625 Z M 37.414062 11.144531 C 37.527344 6.910156 38.65625 3.007812 46.015625 3.007812 C 46.140625 3.007812 46.269531 3.007812 46.398438 3.007812 C 49.101562 3.058594 51.132812 4.335938 52.429688 6.816406 C 53.097656 8.09375 53.394531 9.378906 53.515625 10.082031 C 53.121094 10.003906 52.6875 9.988281 52.261719 9.976562 C 51.269531 9.949219 50.855469 9.886719 50.855469 9.582031 C 50.875 7.074219 49.101562 5.695312 49.023438 5.636719 C 48.894531 5.539062 48.71875 5.539062 48.589844 5.636719 C 48.460938 5.734375 48.414062 5.90625 48.476562 6.054688 C 49.070312 7.550781 48.359375 8.753906 48.09375 9.128906 C 44.757812 9.265625 42.042969 10.351562 41.925781 10.398438 C 41.816406 10.445312 41.734375 10.542969 41.710938 10.660156 L 41.476562 11.816406 C 40.914062 11.371094 40.007812 10.800781 39.296875 11.035156 C 39.003906 11.132812 38.625 11.410156 38.5 12.164062 C 38.230469 13.78125 39.269531 14.355469 40.183594 14.859375 C 40.671875 15.128906 41.171875 15.40625 41.511719 15.832031 C 42.480469 17.042969 42.230469 20.285156 41.636719 21.894531 C 41.164062 23.175781 40.164062 24.9375 36.945312 25.492188 C 36.863281 25.5 35.34375 25.667969 33.621094 26.308594 C 37.132812 21.644531 37.300781 15.394531 37.414062 11.144531 Z M 31.492188 48.976562 L 29.789062 38.757812 C 29.675781 38.085938 30.132812 37.433594 30.804688 37.308594 L 44.460938 34.753906 C 45.132812 34.625 45.777344 35.050781 45.925781 35.722656 L 46.910156 40.195312 C 46.265625 40.320312 45.621094 40.535156 45.128906 40.753906 C 44.855469 40.871094 44.609375 40.988281 44.386719 41.097656 C 44.453125 40.5625 44.476562 39.78125 44.167969 39.324219 C 43.914062 38.941406 43.519531 38.441406 43.050781 38.523438 C 42.761719 38.574219 42.5625 38.8125 42.453125 39.238281 C 42.421875 39.363281 42.390625 39.503906 42.359375 39.652344 C 42.191406 40.445312 41.976562 41.429688 41.152344 42.203125 C 40.203125 43.09375 39.972656 44.769531 39.921875 45.40625 C 38.871094 45.761719 34.609375 47.273438 31.492188 48.976562 Z M 38.402344 46.714844 C 39.558594 46.28125 40.351562 46.011719 40.375 46.003906 C 40.515625 45.957031 40.617188 45.824219 40.621094 45.675781 C 40.621094 45.652344 40.695312 43.609375 41.640625 42.71875 C 42.628906 41.792969 42.878906 40.640625 43.058594 39.796875 C 43.089844 39.65625 43.117188 39.527344 43.148438 39.40625 C 43.160156 39.34375 43.179688 39.300781 43.191406 39.269531 C 43.261719 39.324219 43.386719 39.445312 43.570312 39.71875 C 43.785156 40.042969 43.707031 40.960938 43.582031 41.511719 C 43.582031 41.515625 43.582031 41.519531 43.582031 41.523438 C 43.15625 41.773438 42.933594 41.9375 42.914062 41.949219 C 42.757812 42.070312 42.722656 42.292969 42.84375 42.453125 C 42.964844 42.609375 43.1875 42.644531 43.347656 42.523438 C 43.351562 42.519531 44.050781 42.003906 45.410156 41.40625 C 46.945312 40.734375 48.40625 40.671875 48.640625 40.953125 C 48.65625 40.96875 48.65625 40.972656 48.65625 40.988281 C 48.625 41.152344 48.273438 41.460938 47.960938 41.644531 C 47.652344 41.75 45.628906 42.457031 44.59375 43.167969 C 44.433594 43.28125 44.390625 43.503906 44.503906 43.667969 C 44.570312 43.769531 44.683594 43.824219 44.800781 43.824219 C 44.867188 43.824219 44.941406 43.800781 45.003906 43.761719 C 45.839844 43.183594 47.480469 42.578125 48.035156 42.378906 C 48.199219 42.539062 48.46875 42.851562 48.566406 43.296875 C 48.570312 43.3125 48.578125 43.332031 48.582031 43.351562 C 48.542969 43.351562 48.503906 43.355469 48.46875 43.367188 C 48.433594 43.378906 47.578125 43.667969 46.664062 44.0625 C 46.484375 44.144531 46.398438 44.355469 46.480469 44.535156 C 46.539062 44.671875 46.671875 44.75 46.808594 44.75 C 46.855469 44.75 46.90625 44.742188 46.953125 44.722656 C 47.839844 44.335938 48.691406 44.050781 48.699219 44.046875 C 48.734375 44.035156 48.765625 44.015625 48.796875 43.996094 C 49.058594 44.730469 49.277344 45.550781 48.242188 46.417969 C 46.703125 47.699219 41.625 49.632812 41.574219 49.652344 C 41.53125 49.667969 41.492188 49.695312 41.457031 49.726562 C 41.4375 49.742188 41.097656 50.0625 40.535156 50.566406 C 37.890625 49.550781 38.382812 47.011719 38.40625 46.898438 C 38.421875 46.832031 38.417969 46.773438 38.402344 46.714844 Z M 41.902344 50.292969 C 42.488281 50.070312 46.382812 48.554688 48.234375 47.3125 L 49.871094 55.585938 C 49.957031 56.015625 49.867188 56.453125 49.621094 56.816406 C 49.375 57.175781 49.003906 57.421875 48.574219 57.503906 L 34.894531 60.042969 C 34.464844 60.121094 34.027344 60.027344 33.667969 59.777344 C 33.308594 59.523438 33.070312 59.148438 32.996094 58.714844 L 32.800781 57.5625 C 32.792969 57.527344 32.78125 57.496094 32.765625 57.464844 C 36.753906 55.078125 41.316406 50.84375 41.902344 50.292969 Z M 32.59375 59.648438 C 32.761719 59.925781 32.984375 60.171875 33.257812 60.363281 C 33.65625 60.640625 34.121094 60.785156 34.59375 60.785156 C 34.738281 60.785156 34.882812 60.769531 35.027344 60.746094 L 48.703125 58.207031 C 49.324219 58.089844 49.863281 57.738281 50.21875 57.21875 C 50.570312 56.695312 50.699219 56.066406 50.574219 55.445312 L 48.867188 46.820312 C 50.15625 45.617188 49.703125 44.367188 49.421875 43.605469 C 49.359375 43.433594 49.300781 43.265625 49.273438 43.140625 C 49.160156 42.644531 48.90625 42.265625 48.691406 42.019531 C 48.96875 41.804688 49.296875 41.480469 49.363281 41.117188 C 49.402344 40.890625 49.347656 40.675781 49.195312 40.496094 C 48.894531 40.132812 48.296875 40.042969 47.617188 40.09375 L 46.625 35.574219 C 46.394531 34.523438 45.382812 33.851562 44.324219 34.050781 L 30.667969 36.605469 C 29.617188 36.804688 28.902344 37.824219 29.082031 38.878906 L 30.824219 49.335938 C 30.824219 49.339844 30.828125 49.347656 30.828125 49.355469 C 30.242188 49.699219 29.71875 50.050781 29.28125 50.398438 C 29.125 50.523438 29.101562 50.75 29.226562 50.902344 C 29.296875 50.992188 29.402344 51.039062 29.507812 51.039062 C 29.585938 51.039062 29.664062 51.011719 29.730469 50.960938 C 31.539062 49.511719 35.160156 47.96875 37.671875 47 C 37.59375 47.742188 37.578125 49.992188 39.945312 51.09375 C 37.410156 53.328125 32.285156 57.578125 29.246094 58.273438 C 28.179688 58.519531 27.34375 58.367188 26.769531 57.820312 C 25.550781 56.660156 25.539062 53.828125 25.941406 51.5625 C 26.085938 50.742188 26.324219 49.1875 26.628906 47.222656 C 27.4375 41.972656 28.65625 34.035156 29.496094 30.933594 C 29.847656 29.636719 30.796875 28.546875 32.3125 27.699219 C 33.175781 27.214844 34.101562 26.882812 34.90625 26.652344 C 34.910156 26.660156 34.914062 26.667969 34.917969 26.671875 C 35.042969 26.8125 37.691406 29.675781 43.085938 29.675781 C 43.941406 29.675781 44.867188 29.601562 45.863281 29.4375 C 51.535156 28.492188 52.027344 25.390625 52.046875 24.453125 C 52.785156 24.546875 53.492188 24.695312 54.066406 24.957031 C 56.148438 25.90625 58.679688 31.875 59.203125 34.171875 C 59.183594 34.351562 59.160156 34.542969 59.136719 34.738281 C 58.734375 38.023438 59.824219 45.28125 59.875 45.589844 C 59.898438 45.765625 60.054688 45.894531 60.226562 45.894531 C 60.246094 45.894531 60.265625 45.890625 60.28125 45.886719 C 60.480469 45.859375 60.613281 45.675781 60.585938 45.480469 C 60.574219 45.40625 59.460938 38.007812 59.851562 34.824219 C 59.941406 34.101562 60.007812 33.472656 60.058594 32.914062 C 60.507812 33.183594 61.316406 33.5625 62.289062 33.5625 C 62.722656 33.5625 63.191406 33.480469 63.675781 33.28125 C 65.5 39.597656 66.492188 43.910156 66.617188 46.089844 C 66.824219 49.632812 66.449219 51.570312 63.804688 52.335938 C 62.578125 52.6875 60.710938 51.824219 58.675781 49.960938 C 56.820312 48.261719 55.203125 46.054688 54.554688 44.339844 C 54.53125 44.28125 54.492188 44.230469 54.445312 44.191406 L 55.085938 39.847656 C 55.597656 39.417969 57.511719 37.578125 57.449219 34.375 C 57.421875 32.84375 56.601562 31.398438 55.085938 30.195312 C 53.960938 29.304688 52.863281 28.859375 52.816406 28.839844 C 52.632812 28.765625 52.421875 28.855469 52.347656 29.039062 C 52.273438 29.21875 52.367188 29.429688 52.546875 29.503906 C 52.589844 29.519531 56.667969 31.195312 56.730469 34.386719 C 56.792969 37.621094 54.558594 39.351562 54.535156 39.367188 C 54.460938 39.425781 54.410156 39.511719 54.398438 39.601562 L 53.359375 46.652344 C 53.246094 47.429688 53.351562 48.226562 53.667969 48.953125 C 55.207031 52.472656 60.246094 64.417969 61.363281 72.023438 L 29.269531 72.023438 C 29.316406 66.75 31.671875 61.5 32.59375 59.648438 Z M 32.59375 59.648438 " fill-opacity="1" fill-rule="nonzero"/></g><path fill="#000000" d="M 46.527344 12.410156 C 46.46875 12.796875 46.628906 13.144531 46.890625 13.183594 C 47.152344 13.226562 47.414062 12.949219 47.472656 12.558594 C 47.535156 12.171875 47.375 11.828125 47.113281 11.789062 C 46.851562 11.746094 46.589844 12.023438 46.527344 12.410156 Z M 46.527344 12.410156 " fill-opacity="1" fill-rule="nonzero"/><path fill="#000000" d="M 50.394531 12.3125 C 50.132812 12.273438 49.871094 12.550781 49.808594 12.9375 C 49.75 13.324219 49.910156 13.671875 50.171875 13.710938 C 50.433594 13.753906 50.695312 13.472656 50.753906 13.085938 C 50.816406 12.703125 50.65625 12.355469 50.394531 12.3125 Z M 50.394531 12.3125 " fill-opacity="1" fill-rule="nonzero"/><path fill="#000000" d="M 48.007812 14.082031 C 47.9375 14.054688 47.851562 14.070312 47.792969 14.128906 C 47.714844 14.207031 47.710938 14.335938 47.789062 14.414062 C 47.878906 14.507812 47.980469 14.589844 48.09375 14.65625 C 48.214844 14.722656 48.34375 14.785156 48.5 14.804688 C 48.648438 14.824219 48.824219 14.808594 48.976562 14.730469 C 49.125 14.648438 49.230469 14.535156 49.289062 14.363281 C 49.300781 14.328125 49.300781 14.289062 49.285156 14.25 C 49.253906 14.160156 49.15625 14.117188 49.066406 14.148438 L 48.964844 14.183594 C 48.898438 14.207031 48.820312 14.246094 48.761719 14.257812 C 48.699219 14.273438 48.636719 14.285156 48.5625 14.273438 C 48.488281 14.269531 48.402344 14.242188 48.3125 14.214844 C 48.265625 14.195312 48.222656 14.175781 48.175781 14.15625 C 48.128906 14.136719 48.082031 14.109375 48.03125 14.09375 Z M 48.007812 14.082031 " fill-opacity="1" fill-rule="nonzero"/><path fill="#000000" d="M 49.121094 16.042969 L 49.097656 16.054688 C 48.90625 16.144531 48.675781 16.222656 48.464844 16.265625 C 48.242188 16.308594 48.023438 16.320312 47.804688 16.292969 C 47.589844 16.265625 47.375 16.210938 47.171875 16.105469 C 46.964844 16.015625 46.777344 15.875 46.578125 15.734375 L 46.5625 15.722656 C 46.5 15.675781 46.40625 15.675781 46.34375 15.734375 C 46.269531 15.796875 46.261719 15.910156 46.324219 15.984375 C 46.414062 16.085938 46.503906 16.1875 46.601562 16.28125 C 46.710938 16.367188 46.8125 16.460938 46.9375 16.527344 C 47.167969 16.6875 47.449219 16.773438 47.730469 16.824219 C 48.015625 16.867188 48.308594 16.847656 48.578125 16.769531 C 48.851562 16.695312 49.097656 16.574219 49.328125 16.390625 C 49.402344 16.332031 49.425781 16.230469 49.386719 16.144531 C 49.34375 16.039062 49.222656 15.992188 49.121094 16.042969 Z M 49.121094 16.042969 " fill-opacity="1" fill-rule="nonzero"/><path fill="#000000" d="M 51.015625 11.125 C 50.855469 11.027344 50.664062 10.964844 50.464844 10.949219 C 50.265625 10.929688 50.0625 10.953125 49.882812 11.035156 C 49.699219 11.105469 49.546875 11.226562 49.425781 11.367188 C 49.390625 11.410156 49.378906 11.464844 49.394531 11.523438 C 49.421875 11.617188 49.515625 11.671875 49.605469 11.644531 L 49.628906 11.640625 C 49.78125 11.597656 49.914062 11.542969 50.042969 11.519531 C 50.175781 11.484375 50.304688 11.472656 50.433594 11.472656 C 50.5625 11.476562 50.695312 11.496094 50.835938 11.535156 C 50.96875 11.574219 51.113281 11.632812 51.25 11.695312 L 51.269531 11.703125 C 51.308594 11.71875 51.355469 11.71875 51.390625 11.695312 C 51.449219 11.65625 51.464844 11.578125 51.429688 11.515625 C 51.316406 11.347656 51.183594 11.226562 51.015625 11.125 Z M 51.015625 11.125 " fill-opacity="1" fill-rule="nonzero"/><path fill="#000000" d="M 46.3125 11.296875 C 46.464844 11.253906 46.597656 11.199219 46.726562 11.175781 C 46.855469 11.140625 46.988281 11.128906 47.117188 11.128906 C 47.246094 11.132812 47.378906 11.152344 47.519531 11.191406 C 47.652344 11.230469 47.796875 11.289062 47.933594 11.347656 L 47.953125 11.359375 C 47.992188 11.375 48.035156 11.375 48.074219 11.347656 C 48.132812 11.3125 48.148438 11.230469 48.109375 11.171875 C 48.003906 11.007812 47.867188 10.886719 47.703125 10.785156 C 47.542969 10.6875 47.351562 10.625 47.152344 10.609375 C 46.957031 10.589844 46.75 10.613281 46.570312 10.695312 C 46.386719 10.765625 46.234375 10.886719 46.117188 11.027344 C 46.078125 11.070312 46.066406 11.125 46.082031 11.183594 C 46.109375 11.277344 46.203125 11.332031 46.292969 11.304688 Z M 46.3125 11.296875 " fill-opacity="1" fill-rule="nonzero"/><path fill="#000000" d="M 94.871094 48.226562 C 95.117188 48.179688 95.261719 47.84375 95.191406 47.476562 C 95.125 47.105469 94.863281 46.847656 94.617188 46.894531 C 94.367188 46.945312 94.222656 47.277344 94.292969 47.648438 C 94.363281 48.015625 94.621094 48.273438 94.871094 48.226562 Z M 94.871094 48.226562 " fill-opacity="1" fill-rule="nonzero"/><path fill="#000000" d="M 91.265625 47.503906 C 91.015625 47.554688 90.871094 47.890625 90.941406 48.257812 C 91.011719 48.625 91.269531 48.882812 91.519531 48.835938 C 91.769531 48.789062 91.910156 48.453125 91.84375 48.085938 C 91.773438 47.714844 91.515625 47.457031 91.265625 47.503906 Z M 91.265625 47.503906 " fill-opacity="1" fill-rule="nonzero"/><path fill="#000000" d="M 92.695312 49.777344 C 92.84375 49.847656 93.011719 49.855469 93.152344 49.832031 C 93.300781 49.808594 93.425781 49.75 93.535156 49.679688 C 93.644531 49.609375 93.738281 49.527344 93.820312 49.4375 C 93.875 49.378906 93.886719 49.292969 93.855469 49.21875 C 93.808594 49.121094 93.691406 49.082031 93.59375 49.128906 L 93.578125 49.136719 C 93.484375 49.179688 93.398438 49.222656 93.3125 49.261719 C 93.226562 49.292969 93.144531 49.320312 93.074219 49.328125 C 93.003906 49.339844 92.941406 49.332031 92.882812 49.316406 C 92.824219 49.308594 92.75 49.273438 92.6875 49.253906 L 92.589844 49.222656 C 92.554688 49.210938 92.515625 49.210938 92.480469 49.222656 C 92.394531 49.253906 92.351562 49.351562 92.382812 49.433594 C 92.445312 49.59375 92.550781 49.703125 92.695312 49.777344 Z M 92.695312 49.777344 " fill-opacity="1" fill-rule="nonzero"/><path fill="#000000" d="M 95.035156 50.652344 L 95.019531 50.664062 C 94.839844 50.804688 94.660156 50.941406 94.46875 51.039062 C 94.277344 51.144531 94.074219 51.199219 93.867188 51.238281 C 93.660156 51.269531 93.449219 51.265625 93.238281 51.230469 C 93.027344 51.195312 92.804688 51.125 92.621094 51.046875 L 92.597656 51.035156 C 92.515625 51 92.417969 51.023438 92.363281 51.097656 C 92.300781 51.183594 92.316406 51.304688 92.40625 51.371094 C 92.632812 51.539062 92.867188 51.648438 93.136719 51.714844 C 93.398438 51.777344 93.679688 51.789062 93.949219 51.738281 C 94.21875 51.683594 94.484375 51.589844 94.703125 51.433594 C 94.820312 51.367188 94.914062 51.269531 95.011719 51.1875 C 95.105469 51.09375 95.1875 50.996094 95.269531 50.894531 C 95.320312 50.835938 95.324219 50.746094 95.277344 50.679688 C 95.214844 50.605469 95.109375 50.59375 95.035156 50.652344 Z M 95.035156 50.652344 " fill-opacity="1" fill-rule="nonzero"/><path fill="#000000" d="M 91.71875 46.265625 C 91.546875 46.195312 91.347656 46.175781 91.15625 46.199219 C 90.96875 46.222656 90.785156 46.289062 90.636719 46.386719 C 90.484375 46.488281 90.355469 46.609375 90.257812 46.769531 C 90.238281 46.800781 90.234375 46.84375 90.253906 46.882812 C 90.28125 46.945312 90.355469 46.96875 90.414062 46.941406 L 90.433594 46.929688 C 90.5625 46.871094 90.699219 46.808594 90.824219 46.769531 C 90.953125 46.726562 91.082031 46.703125 91.207031 46.695312 C 91.332031 46.695312 91.453125 46.695312 91.582031 46.726562 C 91.710938 46.746094 91.835938 46.796875 91.984375 46.832031 L 92.003906 46.839844 C 92.054688 46.851562 92.113281 46.839844 92.15625 46.800781 C 92.226562 46.738281 92.230469 46.632812 92.167969 46.566406 C 92.046875 46.4375 91.898438 46.324219 91.71875 46.265625 Z M 91.71875 46.265625 " fill-opacity="1" fill-rule="nonzero"/></svg>